#!OML:ASF F:\twosubjects\two\Thursday\Session 1\Rory.ASF
:FULLY-SPECIFIED
:DEGREES
315
root 8.96598 18.5822 -1.67435 5.21739 5.70426 2.76647
lowerback -2.38436 1.08008 -3.07125
upperback 0.0883308 1.54767 -1.40439
thorax 1.38487 0.756189 0.334831
lowerneck -8.95671 -0.356189 0.301296
upperneck 31.5214 -1.88672 4.50426
head 11.8223 -0.229315 1.40325
rclavicle -5.92627e-015 8.54774e-015
rhumerus 29.45 8.95871 -88.6431
rradius 46.6681
rwrist -6.83019
rhand -54.5566 21.6666
rfingers 7.12502
rthumb -26.956 -6.43058
lclavicle -5.92627e-015 8.54774e-015
lhumerus 27.6227 -8.17207 79.182
lradius 44.6511
lwrist 7.54458
lhand -26.6512 60.4038
lfingers 7.12502
lthumb -0.083198 2069.62
rfemur -11.953 8.32774 13.2084
rtibia 23.1533
rfoot -14.8304 -23.1428
rtoes -3.8906
lfemur -6.81254 -2.75382 -21.3176
ltibia 16.8777
lfoot -14.3242 -1.61622
ltoes 4.21931
316
root 8.95203 18.5824 -1.66816 5.21343 5.77175 2.6476
lowerback -2.44462 1.07734 -2.97558
upperback 0.0710105 1.54229 -1.33359
thorax 1.40154 0.753857 0.354861
lowerneck -9.03083 -0.369301 0.630775
upperneck 31.7166 -1.9288 4.31432
head 11.9139 -0.227753 1.27246
rclavicle -4.52235e-015 4.17448e-015
rhumerus 29.4221 8.95665 -88.8078
rradius 46.5784
rwrist -6.67217
rhand -53.8652 21.6641
rfingers 7.12502
rthumb -26.2943 -6.53357
lclavicle -4.52235e-015 4.17448e-015
lhumerus 27.541 -7.67721 79.7191
lradius 44.5417
lwrist 7.15083
lhand -26.1583 60.049
lfingers 7.12502
lthumb 0.392876 2069.97
rfemur -11.9366 8.00665 13.4024
rtibia 23.1769
rfoot -14.774 -22.8917
rtoes -3.81254
lfemur -6.81067 -2.55651 -21.113
ltibia 16.9014
lfoot -14.5004 -1.92484
ltoes 4.81813
317
root 8.93539 18.58 -1.65948 5.15196 5.78904 2.46412
lowerback -2.53746 1.07871 -2.9488
upperback 0.154196 1.54608 -1.12299
thorax 1.53373 0.752772 0.558871
lowerneck -9.15708 -0.329862 0.561476
upperneck 31.7015 -1.8518 4.29112
head 11.9318 -0.202603 1.28557
rclavicle -5.65294e-015 -1.63003e-014
rhumerus 29.6965 9.22384 -88.4834
rradius 46.4002
rwrist -6.81981
rhand -53.5628 20.9982
rfingers 7.12502
rthumb -26.0048 -7.2423
lclavicle -5.65294e-015 -1.63003e-014
lhumerus 27.6486 -7.69585 79.674
lradius 44.4381
lwrist 7.2248
lhand -26.2661 60.5154
lfingers 7.12502
lthumb 0.288753 2069.51
rfemur -11.8831 7.81915 13.6686
rtibia 23.1874
rfoot -14.8862 -22.7034
rtoes -3.75783
lfemur -6.73019 -2.51326 -20.8417
ltibia 16.9433
lfoot -14.7492 -1.9829
ltoes 4.67552
318
root 8.92078 18.5776 -1.65526 5.16956 5.96162 2.53299
lowerback -2.69281 1.01033 -3.10426
upperback 0.241823 1.46693 -1.02532
thorax 1.70695 0.7084 0.747238
lowerneck -9.16924 -0.30181 0.276017
upperneck 31.5435 -1.82692 4.563
head 11.8743 -0.19435 1.4383
rclavicle 1.65302e-014 -1.66979e-014
rhumerus 29.9437 9.55899 -88.1177
rradius 46.356
rwrist -6.89987
rhand -54.1634 20.5419
rfingers 7.12502
rthumb -26.5797 -7.61291
lclavicle 1.65302e-014 -1.66979e-014
lhumerus 27.7031 -7.8556 79.3489
lradius 44.5466
lwrist 7.55021
lhand -26.4465 60.714
lfingers 7.12502
lthumb 0.114509 2069.31
rfemur -11.8446 7.6375 13.6543
rtibia 23.2097
rfoot -15.1009 -22.6338
rtoes -3.56303
lfemur -6.78205 -2.28206 -20.8547
ltibia 16.9759
lfoot -14.5046 -2.31048
ltoes 4.09103
319
root 8.90545 18.5798 -1.65314 5.24885 6.12147 2.75561
lowerback -2.67786 0.98953 -3.19644
upperback 0.142585 1.44146 -1.17412
thorax 1.59918 0.697942 0.643742
lowerneck -8.91533 -0.317485 0.196942
upperneck 31.4384 -1.92497 4.89923
head 11.7875 -0.211323 1.56377
rclavicle -6.60959e-015 1.10325e-014
rhumerus 29.7861 9.56007 -88.2728
rradius 46.3666
rwrist -6.4105
rhand -55.1817 21.088
rfingers 7.12502
rthumb -27.5539 -6.91537
lclavicle -6.60959e-015 1.10325e-014
lhumerus 27.5036 -7.75767 79.4819
lradius 44.6631
lwrist 7.37793
lhand -26.3679 60.5287
lfingers 7.12502
lthumb 0.190379 2069.49
rfemur -11.8886 7.5147 13.4663
rtibia 23.2903
rfoot -15.2153 -22.5983
rtoes -3.0388
lfemur -6.88597 -2.14257 -21.0368
ltibia 16.9044
lfoot -14.1653 -2.5633
ltoes 3.33186
320
root 8.89267 18.5818 -1.65061 5.35096 6.10348 2.79494
lowerback -2.54987 1.13101 -2.93419
upperback -0.0386581 1.6141 -1.34285
thorax 1.34741 0.791581 0.325669
lowerneck -8.74778 -0.378073 0.321153
upperneck 31.3698 -2.06828 5.02749
head 11.7318 -0.247716 1.57087
rclavicle 9.19379e-016 -1.64991e-014
rhumerus 29.5544 9.15804 -88.5779
rradius 46.3034
rwrist -5.80919
rhand -55.0974 21.459
rfingers 7.12502
rthumb -27.4734 -6.55716
lclavicle 9.19379e-016 -1.64991e-014
lhumerus 27.3926 -7.83712 79.8352
lradius 44.4773
lwrist 6.90727
lhand -26.757 60.7196
lfingers 7.12502
lthumb -0.185437 2069.3
rfemur -12.0867 7.52697 13.4514
rtibia 23.4364
rfoot -15.212 -22.6088
rtoes -3.05355
lfemur -6.89095 -2.25553 -21.0326
ltibia 16.71
lfoot -14.3451 -2.36952
ltoes 2.54648
321
root 8.87985 18.5799 -1.6466 5.44382 6.08947 2.68679
lowerback -2.5788 1.23822 -2.70283
upperback -0.108375 1.74954 -1.34692
thorax 1.29543 0.861816 0.196744
lowerneck -8.70758 -0.405063 0.580271
upperneck 31.1555 -2.11501 4.91404
head 11.637 -0.255879 1.47301
rclavicle 2.85753e-016 -1.21259e-014
rhumerus 29.4917 8.90478 -88.662
rradius 46.3647
rwrist -5.7841
rhand -54.2183 22.3844
rfingers 7.12502
rthumb -26.6322 -5.76243
lclavicle 2.85753e-016 -1.21259e-014
lhumerus 27.4772 -7.78273 80.1911
lradius 44.1406
lwrist 6.44617
lhand -27.15 60.8613
lfingers 7.12502
lthumb -0.564987 2069.16
rfemur -12.3097 7.34931 13.6025
rtibia 23.5954
rfoot -15.1968 -22.5287
rtoes -4.09758
lfemur -6.82143 -2.32077 -20.8807
ltibia 16.4867
lfoot -14.5758 -2.10212
ltoes 1.52317
322
root 8.86017 18.5693 -1.64207 5.46843 6.14737 2.48962
lowerback -2.72572 1.24306 -2.59807
upperback -0.0579352 1.75805 -1.23674
thorax 1.42898 0.864558 0.255763
lowerneck -8.79483 -0.371459 0.725322
upperneck 30.9888 -2.08578 4.89231
head 11.5871 -0.230529 1.43998
rclavicle 5.97596e-015 1.65985e-014
rhumerus 29.5219 9.01319 -88.5886
rradius 46.5158
rwrist -5.8223
rhand -54.616 23.3572
rfingers 7.12502
rthumb -27.0129 -4.73121
lclavicle 5.97596e-015 1.65985e-014
lhumerus 27.4522 -7.60582 80.3944
lradius 44.1821
lwrist 6.36331
lhand -27.0517 60.3452
lfingers 7.12502
lthumb -0.470054 2069.68
rfemur -12.4104 7.26302 13.8813
rtibia 23.6928
rfoot -15.3141 -22.4695
rtoes -3.81887
lfemur -6.86647 -2.68917 -20.5961
ltibia 16.3702
lfoot -14.4411 -1.77908
ltoes 2.09572
323
root 8.84269 18.5621 -1.64312 5.51621 6.25863 2.43645
lowerback -2.74701 1.16832 -2.53674
upperback -0.074988 1.65654 -1.21555
thorax 1.42682 0.814352 0.239701
lowerneck -8.99433 -0.273045 0.962354
upperneck 31.0861 -1.97964 4.80499
head 11.662 -0.161447 1.38111
rclavicle -5.76476e-015 -2.54444e-014
rhumerus 29.5475 9.20934 -88.7526
rradius 46.4861
rwrist -5.62469
rhand -55.2396 23.1757
rfingers 7.12502
rthumb -27.6093 -4.81875
lclavicle -5.76476e-015 -2.54444e-014
lhumerus 27.2527 -7.53223 80.2158
lradius 44.4544
lwrist 6.80863
lhand -27.1184 59.8753
lfingers 7.12502
lthumb -0.534444 1889.85
rfemur -12.4503 7.39226 13.9932
rtibia 23.6891
rfoot -15.4103 -22.6075
rtoes -2.85474
lfemur -7.04381 -3.02738 -20.4749
ltibia 16.4191
lfoot -14.1317 -1.57933
ltoes 2.6911
324
root 8.82582 18.5709 -1.63432 5.40109 6.16212 2.48166
lowerback -2.5532 1.10516 -2.57692
upperback -0.154125 1.56491 -1.2494
thorax 1.23892 0.770966 0.218759
lowerneck -8.8579 -0.128262 1.29448
upperneck 31.1086 -1.78486 4.62488
head 11.6348 -0.0589074 1.27984
rclavicle 5.49888e-014 -6.36111e-015
rhumerus 29.3761 9.43788 -89.1118
rradius 46.4914
rwrist -5.58171
rhand -54.8402 23.0032
rfingers 7.12502
rthumb -27.2273 -5.05173
lclavicle 5.49888e-014 -6.36111e-015
lhumerus 26.9151 -7.40489 79.8089
lradius 44.6947
lwrist 7.32828
lhand -27.2289 59.6809
lfingers 7.12502
lthumb -0.641205 1889.66
rfemur -12.2228 7.52887 14.0305
rtibia 23.5459
rfoot -15.2977 -22.6613
rtoes -3.43339
lfemur -6.86206 -2.66232 -20.5201
ltibia 16.6431
lfoot -14.2489 -1.61381
ltoes 0.7723
325
root 8.80619 18.5801 -1.62316 5.26572 6.17605 2.46019
lowerback -2.36716 1.08175 -2.64172
upperback -0.170313 1.52721 -1.18117
thorax 1.11534 0.75305 0.319324
lowerneck -8.80743 -0.0615142 1.25768
upperneck 31.1678 -1.68001 4.62185
head 11.6453 -0.0155119 1.29906
rclavicle 6.48535e-015 -4.07509e-015
rhumerus 29.289 9.624 -89.0489
rradius 46.5712
rwrist -5.73278
rhand -54.6423 22.65
rfingers 7.12502
rthumb -27.038 -5.43449
lclavicle 6.48535e-015 -4.07509e-015
lhumerus 26.7591 -7.65805 79.2674
lradius 44.9674
lwrist 7.99432
lhand -27.0186 59.5724
lfingers 7.12502
lthumb -0.438072 1889.55
rfemur -11.9258 7.60768 14.1593
rtibia 23.3243
rfoot -15.1567 -22.7436
rtoes -4.1884
lfemur -6.77051 -2.29495 -20.4445
ltibia 16.958
lfoot -14.5534 -1.88869
ltoes -0.226323
326
root 8.79007 18.5835 -1.61398 5.24202 6.255 2.44423
lowerback -2.41078 1.16247 -2.71066
upperback -0.0529916 1.63958 -1.0587
thorax 1.25184 0.806058 0.489345
lowerneck -9.26002 -0.13204 0.736756
upperneck 31.43 -1.81428 5.01684
head 11.8532 -0.0764119 1.5286
rclavicle 1.52629e-014 -1.2921e-015
rhumerus 29.5071 9.62187 -88.5712
rradius 46.6371
rwrist -5.75015
rhand -54.7386 21.4098
rfingers 7.12502
rthumb -27.1301 -6.66036
lclavicle 1.52629e-014 -1.2921e-015
lhumerus 27.0656 -7.82476 79.3505
lradius 44.8489
lwrist 8.17499
lhand -25.9891 58.2825
lfingers 7.12502
lthumb 0.556312 1888.26
rfemur -11.7473 7.71202 14.2506
rtibia 23.1358
rfoot -15.1123 -22.8728
rtoes -3.94636
lfemur -6.90836 -2.29123 -20.3387
ltibia 17.2112
lfoot -14.3911 -2.12566
ltoes 0.602838
